<?xml version="1.0" standalone="no"?>
<!DOCTYPE svg PUBLIC "-//W3C//DTD SVG 20010904//EN"
 "http://www.w3.org/TR/2001/REC-SVG-20010904/DTD/svg10.dtd">
<svg version="1.0" xmlns="http://www.w3.org/2000/svg"
 width="260.000000pt" height="260.000000pt" viewBox="0 0 260.000000 260.000000"
 preserveAspectRatio="xMidYMid meet">
<metadata>
Created by potrace 1.14, written by Peter Selinger 2001-2017
</metadata>
<g transform="translate(0.000000,260.000000) scale(0.100000,-0.100000)"
fill="#000000" stroke="none">
<path d="M1720 2553 c-14 -9 -64 -53 -111 -97 -47 -45 -106 -96 -132 -114
l-46 -33 -6 38 c-11 69 -36 124 -61 135 -20 9 -30 7 -63 -15 -21 -14 -59 -49
-82 -78 -93 -111 -135 -152 -182 -176 -27 -13 -46 -19 -42 -13 6 9 -2 10 -26
5 -134 -29 -308 -148 -329 -226 -24 -86 -99 -143 -261 -196 -56 -19 -60 -22
-41 -32 30 -16 68 -13 140 9 35 11 76 20 92 20 15 0 68 -20 116 -45 97 -49
123 -56 84 -24 -27 22 -28 22 50 -7 19 -7 57 -13 84 -14 40 0 46 2 37 14 -9
11 -4 15 26 20 38 6 93 30 145 63 26 17 27 16 89 -25 65 -44 93 -53 83 -27 -7
17 -1 19 24 5 9 -5 42 -19 73 -30 73 -26 132 -66 194 -131 l50 -52 -46 27
c-64 36 -73 33 -39 -16 33 -48 60 -140 60 -206 l0 -43 -38 30 c-20 17 -52 33
-70 37 l-32 7 27 -54 c24 -46 28 -67 32 -161 2 -59 0 -119 -3 -133 -6 -25 -7
-25 -49 20 -57 59 -74 57 -37 -2 38 -63 60 -147 66 -258 4 -87 4 -88 -9 -49
-28 83 -47 79 -46 -11 0 -28 3 -43 7 -33 4 9 8 -40 9 -110 2 -142 22 -242 73
-349 16 -35 30 -63 32 -63 2 0 4 35 5 78 1 81 41 222 83 299 l21 38 -6 -58
c-4 -32 -17 -101 -29 -153 -13 -52 -20 -94 -16 -94 5 0 29 23 55 52 73 82 153
269 156 364 0 25 1 26 9 9 13 -30 11 -112 -3 -182 -8 -34 -10 -60 -5 -57 4 3
27 32 49 66 131 192 178 439 123 643 -4 13 1 10 15 -10 21 -31 61 -134 82
-215 l12 -45 19 75 c12 45 22 127 25 205 8 203 -27 307 -141 412 l-61 56 53
-7 c75 -10 175 -49 257 -101 38 -24 71 -42 73 -40 10 10 -99 157 -163 220
-112 112 -293 219 -410 241 -19 3 -38 10 -41 15 -14 24 92 20 206 -7 21 -5 16
2 -25 40 -27 26 -80 69 -117 98 -38 28 -68 53 -68 56 0 2 12 37 26 76 26 72
53 287 41 320 -8 21 -36 20 -67 -1z m-816 -647 c-3 -8 -25 -24 -49 -37 -35
-19 -49 -21 -72 -13 -16 5 -29 18 -31 29 -2 18 -2 19 8 3 15 -25 58 -22 105 7
48 29 46 29 39 11z m86 4 c0 -5 -14 -25 -31 -45 -21 -24 -40 -35 -58 -35 -48
0 -43 12 22 51 71 44 67 42 67 29z"/>
<path d="M220 1747 c-65 -22 -48 -102 38 -185 55 -53 77 -60 132 -39 8 3 31 8
50 10 19 3 56 11 82 17 66 16 112 10 116 -15 2 -11 15 -32 29 -46 34 -37 43
-88 32 -184 -9 -80 -27 -145 -68 -237 -20 -47 -20 -48 -1 -48 11 0 20 -6 20
-13 0 -21 -37 -50 -54 -44 -18 7 -30 -22 -20 -47 15 -40 161 -81 200 -57 16
10 15 11 -11 6 -55 -9 -59 9 -9 43 25 18 43 36 40 41 -3 5 2 19 12 32 10 13
54 81 97 151 43 70 81 125 85 123 18 -11 65 157 58 208 -3 27 -10 31 -90 58
-47 15 -138 36 -202 45 -108 15 -125 15 -245 0 -160 -20 -158 -20 -130 3 l24
20 -40 -9 c-62 -15 -63 -13 -6 44 l53 53 -29 22 c-15 11 -32 24 -38 28 -16 13
-65 33 -78 32 -7 0 -28 -5 -47 -12z m71 -107 c10 0 19 -4 19 -10 0 -15 -34
-12 -56 6 -17 14 -17 15 -1 10 10 -3 27 -6 38 -6z m407 -617 c24 -26 22 -51
-4 -60 -12 -4 -34 40 -34 67 0 27 8 25 38 -7z"/>
<path d="M1040 1030 c17 -17 20 -33 20 -116 0 -76 5 -111 26 -172 24 -71 91
-198 100 -189 2 2 -1 28 -6 58 -6 31 -8 82 -4 119 l8 65 8 -50 c10 -56 37
-146 48 -158 3 -4 1 27 -6 70 -7 43 -13 105 -14 138 -1 33 -5 68 -8 78 -7 16
-9 16 -31 1 -13 -9 -36 -37 -52 -62 l-29 -46 0 95 c-1 143 -15 188 -62 189
-16 0 -16 -2 2 -20z"/>
</g>
</svg>
